<?xml version="1.0" standalone="no"?>
<!DOCTYPE svg PUBLIC "-//W3C//DTD SVG 20010904//EN"
 "http://www.w3.org/TR/2001/REC-SVG-20010904/DTD/svg10.dtd">
<svg version="1.0" xmlns="http://www.w3.org/2000/svg"
 width="256.000000pt" height="254.000000pt" viewBox="0 0 256.000000 254.000000"
 preserveAspectRatio="xMidYMid meet">

<g transform="translate(0.000000,254.000000) scale(0.100000,-0.100000)"
fill="#000000" stroke="none">
<path d="M73 2525 c-45 -32 -58 -95 -57 -285 0 -210 21 -354 104 -740 30 -137
31 -153 26 -290 -4 -80 -9 -177 -12 -217 -11 -126 36 -296 120 -435 25 -41 32
-60 23 -65 -7 -4 -68 -34 -137 -66 -138 -64 -152 -73 -126 -83 10 -4 68 17
151 55 111 50 139 60 155 51 11 -6 20 -15 20 -20 0 -5 -57 -43 -128 -86 -149
-91 -163 -101 -144 -113 9 -6 64 20 163 76 136 78 179 93 179 64 0 -5 -57 -56
-127 -113 -178 -144 -251 -214 -237 -228 8 -8 45 17 140 97 71 60 159 132 195
160 l65 52 29 -19 28 -18 -59 -64 c-102 -108 -164 -181 -164 -195 0 -31 33 -7
106 78 43 50 96 106 117 124 l39 33 76 -39 c47 -24 102 -44 141 -50 86 -13
116 -27 202 -93 41 -31 96 -64 124 -73 72 -26 230 -23 368 6 133 28 336 86
350 100 6 6 22 34 36 62 18 36 38 58 67 75 l40 23 65 -51 c35 -28 103 -87 151
-130 85 -77 108 -91 108 -65 0 14 -165 171 -248 237 -40 32 -41 34 -25 52 22
24 25 24 95 -17 33 -19 64 -33 69 -29 6 3 22 3 36 -1 19 -4 24 -11 20 -25 -4
-14 4 -25 30 -41 19 -12 82 -57 140 -101 95 -71 142 -92 128 -56 -8 20 -237
188 -353 258 -97 60 -101 64 -86 82 10 10 25 18 35 18 9 0 102 -41 205 -90
174 -84 223 -98 199 -59 -5 6 -91 52 -192 101 -126 61 -181 93 -176 101 4 7
20 31 35 53 40 60 95 179 114 249 11 42 18 131 24 300 5 132 14 267 20 300 7
33 41 155 77 270 93 298 102 329 119 435 32 196 17 348 -39 401 -29 27 -101
25 -158 -3 -74 -38 -205 -147 -394 -328 -132 -126 -194 -179 -234 -198 -52
-24 -56 -24 -170 -14 -208 20 -334 24 -431 12 -52 -6 -126 -13 -164 -17 l-69
-6 -226 230 c-124 127 -255 252 -291 278 -128 94 -234 127 -287 90z m185 -112
c122 -75 315 -281 478 -508 l48 -68 10 -136 11 -136 14 60 c14 65 58 182 71
190 4 2 7 -42 6 -100 -1 -125 12 -149 38 -70 11 29 32 70 48 90 31 37 116 100
124 92 3 -3 -7 -23 -21 -46 -42 -63 -26 -67 45 -12 36 27 66 48 68 47 2 -2
-15 -29 -37 -61 -22 -31 -48 -80 -57 -108 -20 -60 -22 -178 -3 -222 l12 -30 8
55 c21 144 69 256 139 325 l38 37 -19 -73 c-22 -83 -24 -126 -8 -166 12 -28
12 -28 29 27 22 70 62 150 88 174 l21 18 -20 -52 c-21 -55 -22 -131 -3 -137 6
-2 25 25 42 59 39 78 113 173 155 198 18 11 48 20 67 20 76 1 138 46 434 319
224 207 281 244 340 221 48 -18 59 -66 53 -220 -6 -154 -16 -197 -111 -485
-35 -104 -72 -226 -81 -270 -10 -44 -21 -87 -26 -95 -5 -9 -9 77 -10 200 -1
203 -2 212 -15 160 -7 -30 -21 -116 -31 -191 -16 -130 -16 -142 2 -305 23
-206 22 -306 -4 -405 -31 -121 -118 -279 -165 -300 -16 -8 -44 -5 -107 11
-117 30 -220 47 -333 56 -85 6 -96 5 -96 -9 0 -19 10 -22 145 -37 105 -11 324
-56 338 -69 4 -4 -2 -16 -13 -26 -20 -18 -24 -18 -193 23 -223 53 -259 58
-276 38 -16 -20 -29 -15 189 -61 241 -50 237 -48 177 -77 -33 -16 -38 -15
-182 28 -155 46 -180 50 -190 35 -9 -15 18 -26 150 -61 66 -18 127 -36 135
-41 24 -13 -67 -47 -156 -59 -44 -6 -112 -15 -153 -20 -40 -6 -110 -21 -155
-35 -175 -53 -212 -52 -406 11 -112 37 -290 118 -329 151 l-24 19 72 13 c39 7
74 17 77 23 14 22 -16 26 -104 11 -73 -11 -96 -12 -108 -3 -26 22 -15 28 74
40 128 17 142 20 142 36 0 20 -74 18 -183 -5 -84 -18 -89 -18 -110 -1 -12 10
-20 20 -17 23 3 3 70 12 149 21 148 17 165 21 156 37 -9 14 -126 11 -237 -8
l-100 -16 -19 24 c-36 46 -91 171 -111 252 -19 73 -20 96 -12 217 13 224 9
269 -51 543 -69 308 -83 402 -91 582 -7 163 4 251 37 278 27 22 44 17 137 -40z"/>
<path d="M144 2409 c-10 -17 35 -52 122 -94 87 -43 124 -47 79 -10 -32 27
-150 100 -176 110 -10 4 -20 1 -25 -6z"/>
<path d="M2286 2330 c-42 -27 -76 -52 -76 -56 0 -3 25 -2 55 1 86 11 66 -9
-45 -44 -62 -20 -100 -37 -100 -45 0 -11 12 -11 73 0 166 32 153 5 -17 -35
-111 -27 -148 -43 -133 -57 3 -4 49 1 102 10 123 20 134 21 115 2 -8 -8 -70
-25 -138 -40 -125 -26 -162 -39 -162 -56 0 -15 38 -12 151 10 57 11 105 18
107 16 11 -11 -53 -36 -143 -56 -122 -26 -155 -38 -155 -56 0 -19 36 -18 143
5 82 17 110 14 69 -8 -10 -5 -65 -22 -123 -36 -60 -15 -112 -34 -124 -46 -19
-19 -19 -19 7 -19 14 0 62 7 105 15 92 18 106 18 98 5 -3 -5 -59 -26 -123 -46
-115 -36 -142 -48 -142 -65 0 -14 78 -10 148 6 244 58 436 256 459 475 10 96
-17 170 -61 170 -7 0 -48 -22 -90 -50z"/>
<path d="M120 2331 c0 -18 66 -60 161 -104 167 -78 223 -93 189 -52 -15 18
-313 165 -335 165 -8 0 -15 -4 -15 -9z"/>
<path d="M143 2232 c40 -44 306 -170 398 -189 36 -7 38 10 4 33 -36 23 -385
174 -403 174 -13 0 -13 -3 1 -18z"/>
<path d="M120 2140 c0 -65 38 -295 73 -441 37 -149 77 -259 97 -259 6 0 9 8 6
18 -10 34 -28 174 -23 179 3 3 13 -10 22 -29 24 -46 95 -118 118 -118 11 0 17
5 14 13 -3 6 -14 35 -26 64 l-20 52 46 -29 c26 -17 49 -28 51 -25 3 2 -8 21
-24 41 -94 118 -122 164 -205 328 -51 99 -101 195 -111 211 l-18 30 0 -35z"/>
<path d="M210 2131 c0 -28 238 -152 368 -191 87 -26 107 -23 70 12 -23 21
-111 59 -385 167 -29 11 -53 17 -53 12z"/>
<path d="M260 2020 c0 -12 71 -60 145 -97 76 -39 248 -103 274 -103 28 0 37
21 16 37 -16 11 -418 173 -431 173 -2 0 -4 -4 -4 -10z"/>
<path d="M320 1904 c8 -8 60 -47 118 -85 104 -69 105 -70 165 -67 33 2 62 8
64 14 3 9 -327 154 -351 154 -5 0 -3 -7 4 -16z"/>
<path d="M1582 1811 c-34 -35 -65 -107 -60 -141 2 -18 14 -1 52 69 26 51 46
94 43 97 -2 3 -18 -9 -35 -25z"/>
<path d="M370 1801 c0 -5 15 -30 33 -56 49 -72 124 -103 178 -75 29 16 24 24
-35 49 -30 12 -80 38 -111 57 -63 37 -65 38 -65 25z"/>
<path d="M1986 1705 c-66 -19 -126 -41 -134 -49 -28 -28 31 -31 121 -7 92 25
140 49 145 74 4 21 10 22 -132 -18z"/>
<path d="M1995 1616 c-93 -29 -108 -56 -31 -56 28 0 55 8 76 23 65 43 42 60
-45 33z"/>
<path d="M2015 1528 c-39 -14 -42 -17 -25 -28 26 -17 78 -12 89 9 18 32 -7 39
-64 19z"/>
<path d="M330 1479 c0 -34 35 -68 52 -51 10 10 5 20 -20 44 l-32 33 0 -26z"/>
<path d="M805 1440 c-7 -11 2 -138 11 -172 3 -10 14 -18 24 -18 28 0 35 56 16
123 -17 58 -39 87 -51 67z"/>
<path d="M1387 1419 c-37 -55 -49 -147 -21 -169 12 -11 18 -11 30 2 11 11 14
35 12 104 -3 89 -3 89 -21 63z"/>
<path d="M280 1380 c0 -30 30 -57 50 -45 13 8 -14 61 -35 68 -11 5 -15 -1 -15
-23z"/>
<path d="M481 1220 c-29 -11 -60 -25 -70 -32 -9 -7 -17 -13 -19 -14 -1 -1 4
-14 12 -30 8 -16 28 -59 44 -95 56 -127 136 -178 289 -188 117 -8 124 -14 94
-83 -12 -29 -25 -59 -28 -65 -9 -23 15 -14 51 17 47 42 59 84 54 194 -3 73 -9
101 -31 142 -33 65 -113 137 -174 158 -62 21 -156 20 -222 -4z m102 -46 c3 -4
-1 -20 -9 -37 -11 -21 -15 -48 -12 -88 4 -53 3 -57 -13 -48 -41 21 -42 117 -3
160 18 20 27 23 37 13z m247 -130 c0 -50 -48 -110 -99 -124 -47 -13 -63 3 -23
24 42 22 80 70 88 113 6 34 8 35 20 18 8 -10 14 -24 14 -31z"/>
<path d="M1512 1219 c-104 -40 -197 -168 -223 -306 -11 -57 -6 -133 8 -133 3
0 20 17 38 37 l31 37 115 7 c195 12 283 69 340 220 12 30 27 61 35 70 14 15
12 19 -18 37 -87 53 -232 67 -326 31z m197 -65 c27 -35 27 -96 0 -140 -11 -19
-22 -34 -23 -34 -1 0 -2 28 -2 63 1 43 -4 71 -16 89 -12 19 -14 28 -5 37 16
16 23 14 46 -15z m-269 -95 c0 -33 18 -61 68 -106 44 -40 45 -43 22 -43 -74 0
-140 95 -114 164 8 21 24 10 24 -15z"/>
<path d="M266 935 c16 -116 70 -207 146 -243 47 -23 138 -39 138 -26 0 5 -23
20 -52 33 -80 37 -153 112 -199 206 l-40 80 7 -50z"/>
<path d="M2031 926 c-44 -106 -153 -187 -319 -236 -41 -12 -72 -24 -69 -27 12
-11 208 17 254 37 94 41 151 120 160 222 3 32 4 58 1 58 -2 0 -14 -24 -27 -54z"/>
<path d="M955 652 c-82 -15 -85 -36 -12 -92 59 -44 77 -73 77 -125 0 -47 -37
-75 -99 -75 -63 0 -80 -12 -50 -34 34 -23 88 -20 145 9 l49 25 50 -27 c63 -34
137 -37 180 -8 l30 20 -80 5 c-110 8 -145 31 -145 94 0 43 20 73 81 120 33 25
59 50 59 56 0 21 -50 34 -145 36 -55 2 -118 -1 -140 -4z"/>
</g>
</svg>
